<svg xmlns="http://www.w3.org/2000/svg" width="650" height="143" viewBox="0 0 650 143">
  <g id="组_25" data-name="组 25" transform="translate(-49 -263)">
    <g id="组_24" data-name="组 24" transform="translate(0 189)">
      <g id="组_1" data-name="组 1" transform="translate(-1059 -455)">
        <g id="favicon" transform="translate(917.107 324.793)">
          <g id="shape_bnNFWV4Z7Q">
            <g id="组_17" data-name="组 17" transform="translate(190.893 211.207)">
              <g id="组_16" data-name="组 16">
                <g id="图层_1">
                  <g id="组_15" data-name="组 15">
                    <g id="组_9" data-name="组 9">
                      <g id="组_6" data-name="组 6">
                        <path id="路径_2" data-name="路径 2" d="M64.1,128.3a4.225,4.225,0,0,0,4.2-4.2v-8.6H59.9v8.6A4.225,4.225,0,0,0,64.1,128.3Z" fill="#03afe5"/>
                        <g id="组_5" data-name="组 5">
                          <path id="路径_3" data-name="路径 3" d="M94.3,128.3a4.225,4.225,0,0,0,4.2-4.2v-8.6H90.1v8.6A4.225,4.225,0,0,0,94.3,128.3Z" fill="#03afe5"/>
                          <path id="路径_4" data-name="路径 4" d="M34,128.3a4.225,4.225,0,0,0,4.2-4.2v-8.6H29.8v8.6A4.225,4.225,0,0,0,34,128.3Z" fill="#03afe5"/>
                        </g>
                      </g>
                      <g id="组_8" data-name="组 8">
                        <path id="路径_5" data-name="路径 5" d="M64.1,0a4.225,4.225,0,0,1,4.2,4.2v8.6H59.9V4.2A4.225,4.225,0,0,1,64.1,0Z" fill="#03afe5"/>
                        <g id="组_7" data-name="组 7">
                          <path id="路径_6" data-name="路径 6" d="M94.3,0a4.225,4.225,0,0,1,4.2,4.2v8.6H90.1V4.2A4.225,4.225,0,0,1,94.3,0Z" fill="#03afe5"/>
                          <path id="路径_7" data-name="路径 7" d="M34,0a4.225,4.225,0,0,1,4.2,4.2v8.6H29.8V4.2A4.225,4.225,0,0,1,34,0Z" fill="#03afe5"/>
                        </g>
                      </g>
                    </g>
                    <g id="组_14" data-name="组 14">
                      <g id="组_11" data-name="组 11">
                        <path id="路径_8" data-name="路径 8" d="M0,64.1a4.225,4.225,0,0,0,4.2,4.2h8.6V59.9H4.2A4.225,4.225,0,0,0,0,64.1Z" fill="#03afe5"/>
                        <g id="组_10" data-name="组 10">
                          <path id="路径_9" data-name="路径 9" d="M0,94.3a4.225,4.225,0,0,0,4.2,4.2h8.6V90.1H4.2A4.225,4.225,0,0,0,0,94.3Z" fill="#03afe5"/>
                          <path id="路径_10" data-name="路径 10" d="M0,34a4.225,4.225,0,0,0,4.2,4.2h8.6V29.8H4.2A4.225,4.225,0,0,0,0,34Z" fill="#03afe5"/>
                        </g>
                      </g>
                      <g id="组_13" data-name="组 13">
                        <path id="路径_11" data-name="路径 11" d="M128.3,64.1a4.225,4.225,0,0,1-4.2,4.2h-8.6V59.9h8.6A4.225,4.225,0,0,1,128.3,64.1Z" fill="#03afe5"/>
                        <g id="组_12" data-name="组 12">
                          <path id="路径_12" data-name="路径 12" d="M128.3,94.3a4.225,4.225,0,0,1-4.2,4.2h-8.6V90.1h8.6A4.225,4.225,0,0,1,128.3,94.3Z" fill="#03afe5"/>
                          <path id="路径_13" data-name="路径 13" d="M128.3,34a4.225,4.225,0,0,1-4.2,4.2h-8.6V29.8h8.6A4.225,4.225,0,0,1,128.3,34Z" fill="#03afe5"/>
                        </g>
                      </g>
                    </g>
                    <path id="路径_14" data-name="路径 14" d="M107.2,15.1H21.1a6.018,6.018,0,0,0-6,6v86.1a6.018,6.018,0,0,0,6,6h86.1a6.018,6.018,0,0,0,6-6V21.1A6.018,6.018,0,0,0,107.2,15.1Z" fill="#0076cf"/>
                  </g>
                </g>
              </g>
            </g>
          </g>
          <g id="shape_RfAfan4QzL">
            <g id="组_21" data-name="组 21" transform="translate(-25.84 -25.527)">
              <g id="组_20" data-name="组 20">
                <g id="组_19" data-name="组 19">
                  <g id="组_18" data-name="组 18" transform="translate(258.968 258.734)">
                    <path id="路径_15" data-name="路径 15" d="M15.09-17.42V-52.26q.95-.17,3.02-.48a27.7,27.7,0,0,1,3.97-.3h0a18.06,18.06,0,0,1,3.49.3,6.3,6.3,0,0,1,2.54,1.08,4.684,4.684,0,0,1,1.56,2.16,10.65,10.65,0,0,1,.51,3.62h0v31.91q0,7.67-4.39,11.51T12.85,1.38h0A16.251,16.251,0,0,1,5.61,0h0A6.21,6.21,0,0,1,2.72-2.59,7.516,7.516,0,0,1,1.81-6.3h0a8.615,8.615,0,0,1,.48-3.01,6.264,6.264,0,0,1,1.16-2.07h0q1.64.34,2.8.47a23.178,23.178,0,0,0,2.55.13h0q3.36,0,4.83-1.68a7.368,7.368,0,0,0,1.46-4.96Z" transform="translate(0 66)" fill="#fff" stroke="#fff" stroke-width="0.144"/>
                  </g>
                </g>
              </g>
            </g>
          </g>
        </g>
      </g>
    </g>
    <text id="小江的博客" transform="translate(193 373)" fill="#0076cf" font-size="110" font-family="YouSheBiaoTiHei"><tspan x="0" y="0">小江的博客</tspan></text>
  </g>
</svg>
